<svg xmlns="http://www.w3.org/2000/svg" width="36.113" height="33.3" viewBox="0 0 36.113 33.3">
  <g id="グループ_5" data-name="グループ 5" transform="translate(-1981.5 216.5)">
    <circle id="楕円形_3" data-name="楕円形 3" cx="16.15" cy="16.15" r="16.15" transform="translate(1982 -216)" fill="#141ff2" stroke="#00e846" stroke-miterlimit="10" stroke-width="1"/>
    <path id="パス_3" data-name="パス 3" d="M25.288,29.506s-1.36,10.02,4.52,8.87c0,0,4.98.38.77,4.6,0,0-4.6,3.45-.64,7.79,0,0,2.27,2.91,1.52,5.92,0,0,6.14.72,10.1-8.48,0,0,1.61-4.61-4.09-6.86,0,0-3.06-.16.26-4.12a2.443,2.443,0,0,0-.64-3.58s-1.79-1.66,2.94-3.32c0,0,3.08-2.3-3.7-1.79,0,0-1.69-.28-1.42-3.33A16.481,16.481,0,0,0,25.288,29.506Z" transform="translate(1961.832 -241.146)" fill="#00e846"/>
    <path id="パス_4" data-name="パス 4" d="M45.068,37.136l1.21,10.69,2.49-1.9,3.7,6.12,2.62-1.92-4-5.62,2.6-1.66Z" transform="translate(1961.832 -241.146)" fill="#fff" stroke="#000" stroke-miterlimit="10" stroke-width="1"/>
  </g>
</svg>
