<svg xmlns="http://www.w3.org/2000/svg" width="241.5" height="59" viewBox="0 0 241.5 59">
  <g id="logo" transform="translate(-231.98 -441.64)">
    <g id="グループ_1" data-name="グループ 1" transform="translate(232.48 442.14)">
      <ellipse id="楕円形_1" data-name="楕円形 1" cx="29.402" cy="29" rx="29.402" ry="29" fill="#141ff2" stroke="#00e846" stroke-miterlimit="10" stroke-width="1"/>
      <path id="パス_1" data-name="パス 1" d="M237.712,449.919s-2.476,17.986,8.229,15.922c0,0,9.066.682,1.4,8.257,0,0-8.374,6.193-1.165,13.983,0,0,4.133,5.224,2.767,10.627,0,0,11.178,1.292,18.387-15.222,0,0,2.931-8.275-7.446-12.314,0,0-5.571-.287.473-7.4,0,0,2.785-3.446-1.165-6.426,0,0-3.259-2.98,5.352-5.959,0,0,5.607-4.129-6.736-3.213,0,0-3.077-.5-2.585-5.977A30.239,30.239,0,0,0,237.712,449.919Z" transform="translate(-228.391 -442.091)" fill="#00e846"/>
      <path id="パス_2" data-name="パス 2" d="M257.38,454.13l2.2,19.461,4.533-3.459,6.736,11.142,4.77-3.5-7.282-10.231,4.733-3.022Z" transform="translate(-210.873 -430.992)" fill="#fff" stroke="#000" stroke-miterlimit="10" stroke-width="1"/>
      <line id="線_1" data-name="線 1" x2="174.188" transform="translate(65.812 48.169)" fill="none" stroke="#f20f30" stroke-linecap="round" stroke-miterlimit="10" stroke-width="2"/>
    </g>
    <text id="YOI_Shop" data-name="YOI Shop" transform="translate(304.192 474.662)" font-size="36" font-family="HoeflerText-Regular, Hoefler Text"><tspan x="0" y="0">YOI Shop</tspan></text>
  </g>
</svg>
